<svg width="24" height="24" viewBox="0 0 24 24" fill="none" xmlns="http://www.w3.org/2000/svg"><path d="M4 17.9808V9.70753C4 6.07416 4 4.25748 5.17157 3.12874C6.34315 2 8.22876 2 12 2C15.7712 2 17.6569 2 18.8284 3.12874C20 4.25748 20 6.07416 20 9.70753V17.9808C20 20.2867 20 21.4396 19.2272 21.8523C18.4544 22.265 17.5056 21.6514 15.608 20.4244L14.472 19.6849C13.1393 18.8709 12.4729 18.4639 11.7638 18.3451C11.2562 18.2568 10.7382 18.2568 10.2306 18.3451C9.52153 18.4639 8.85511 18.8709 7.52207 19.6849L6.38604 20.4244C4.48846 21.6514 3.53967 22.265 2.76683 21.8523C2 21.4396 2 20.2867 2 17.9808V9.70753C2 6.07416 2 4.25748 3.17157 3.12874C4.34315 2 6.22876 2 10 2" stroke="currentColor" stroke-width="1.5" stroke-linecap="round"/></svg>
