<svg width="24" height="24" viewBox="0 0 24 24" fill="none" xmlns="http://www.w3.org/2000/svg"><path d="M21 16C21 18.2091 19.2091 20 17 20H16M3 16C3 18.2091 4.79086 20 7 20H8" stroke="currentColor" stroke-width="1.5" stroke-linecap="round"/><path d="M21 12V16M3 12V16" stroke="currentColor" stroke-width="1.5" stroke-linecap="round" stroke-linejoin="round"/><path d="M7 20C7.55228 20 8 20.4477 8 21C8 21.5523 7.55228 22 7 22C6.44772 22 6 21.5523 6 21C6 20.4477 6.44772 20 7 20Z" stroke="currentColor" stroke-width="1.5"/><path d="M17 20C17.5523 20 18 20.4477 18 21C18 21.5523 17.5523 22 17 22C16.4477 22 16 21.5523 16 21C16 20.4477 16.4477 20 17 20Z" stroke="currentColor" stroke-width="1.5"/><path d="M21 12C21 7.02944 16.9706 3 12 3C7.02944 3 3 7.02944 3 12" stroke="currentColor" stroke-width="1.5" stroke-linecap="round"/></svg>
