<svg width="24" height="24" viewBox="0 0 24 24" fill="none" xmlns="http://www.w3.org/2000/svg"><path d="M2.97663 8.50427C2.42382 5.49559 2.14742 3.99125 2.96955 3.0206C3.79169 2.04996 5.29698 2.04996 8.30758 2.04996H15.6924C18.703 2.04996 20.2083 2.04996 21.0304 3.0206C21.8526 3.99125 21.5762 5.49559 21.0234 8.50427L20.5615 10.9118C19.9318 14.4796 19.617 16.2634 18.3453 17.3817C17.0736 18.5 15.2441 18.5 11.5853 18.5H12.4147C8.75589 18.5 6.92646 18.5 5.6547 17.3817C4.38295 16.2634 4.06819 14.4796 3.43867 10.9118L2.97663 8.50427Z" stroke="currentColor" stroke-width="1.5"/><path d="M11 8.5H13" stroke="currentColor" stroke-width="1.5" stroke-linecap="round"/><path d="M7 18.5V20.5C7 21.3284 7.67157 22 8.5 22C9.32843 22 10 21.3284 10 20.5V18.5" stroke="currentColor" stroke-width="1.5"/><path d="M17 18.5V20.5C17 21.3284 16.3284 22 15.5 22C14.6716 22 14 21.3284 14 20.5V18.5" stroke="currentColor" stroke-width="1.5"/></svg>
