<svg width="24" height="24" viewBox="0 0 24 24" fill="none" xmlns="http://www.w3.org/2000/svg"><path d="M13.5 21H10C6.70017 21 5.05025 21 4.02513 19.9749C3 18.9497 3 17.2998 3 14V10C3 6.70017 3 5.05025 4.02513 4.02513C5.05025 3 6.70017 3 10 3H14C17.2998 3 18.9497 3 19.9749 4.02513C20.8471 4.89732 20.9771 6.19522 20.9975 9" stroke="currentColor" stroke-width="1.5" stroke-linecap="round"/><path d="M3 9H21" stroke="currentColor" stroke-width="1.5" stroke-linejoin="round"/><path d="M12 21V9" stroke="currentColor" stroke-width="1.5" stroke-linejoin="round"/><path d="M21.9707 14L20.793 20.0746C20.7045 20.5109 20.3144 20.8279 19.8688 20.8279H17.1312C16.6856 20.8279 16.2955 20.5109 16.207 20.0746L15.0293 14C14.9201 13.4683 15.3322 13 15.8788 13H21.1212C21.6678 13 22.0799 13.4683 21.9707 14Z" stroke="currentColor" stroke-width="1.5"/><path d="M15.5 13V11.5C15.5 10.6716 16.1716 10 17 10H20C20.8284 10 21.5 10.6716 21.5 11.5V13" stroke="currentColor" stroke-width="1.5" stroke-linecap="round"/></svg>
