<svg width="24" height="24" viewBox="0 0 24 24" fill="none" xmlns="http://www.w3.org/2000/svg"><path d="M21 7.17139V16.8286C21 18.7266 21 19.6757 20.5307 20.3321C20.3631 20.5545 20.1636 20.7506 19.9389 20.9147C19.2779 21.3761 18.3224 21.3761 16.4113 21.3761H7.58867C5.67756 21.3761 4.72201 21.3761 4.06107 20.9147C3.83638 20.7506 3.63688 20.5545 3.46927 20.3321C3 19.6757 3 18.7266 3 16.8286V7.17139C3 5.27339 3 4.32439 3.46927 3.66799C3.63688 3.4455 3.83638 3.24942 4.06107 3.08527C4.72201 2.62391 5.67756 2.62391 7.58867 2.62391H16.4113C18.3224 2.62391 19.2779 2.62391 19.9389 3.08527C20.1636 3.24942 20.3631 3.4455 20.5307 3.66799C21 4.32439 21 5.27339 21 7.17139Z" stroke="currentColor" stroke-width="1.5"/><path d="M16 12C16 10.1144 16 9.17157 15.4142 8.58579C14.8284 8 13.8856 8 12 8C10.1144 8 9.17157 8 8.58579 8.58579C8 9.17157 8 10.1144 8 12C8 13.8856 8 14.8284 8.58579 15.4142C9.17157 16 10.1144 16 12 16C13.8856 16 14.8284 16 15.4142 15.4142C16 14.8284 16 13.8856 16 12Z" stroke="currentColor" stroke-width="1.5"/><path d="M8 12H3M21 12H16" stroke="currentColor" stroke-width="1.5" stroke-linecap="round" stroke-linejoin="round"/><path d="M12 16V21" stroke="currentColor" stroke-width="1.5" stroke-linecap="round" stroke-linejoin="round"/></svg>
